<svg
        xmlns="http://www.w3.org/2000/svg"
        width="342px" height="76px">
    <path fill-rule="evenodd"  fill="rgb(255, 255, 255)"
          d="M333.584,25.478 L333.584,54.503 C333.659,57.063 333.049,59.010 331.774,60.283 C330.462,61.592 328.781,62.246 325.710,62.246 C325.118,62.246 324.218,62.257 322.974,62.257 L322.974,59.134 C323.551,59.139 324.147,59.142 324.787,59.142 C328.481,59.142 330.442,57.664 330.442,54.510 L330.442,25.478 L304.603,25.478 L304.603,22.361 L330.442,22.361 L330.442,8.975 L333.584,8.975 L333.584,22.361 L342.000,22.361 L342.000,25.478 L333.584,25.478 ZM299.139,63.151 L296.008,63.151 L296.008,29.362 C294.197,32.677 292.273,35.838 290.450,38.527 L288.722,35.565 C293.982,27.920 298.173,18.785 301.032,8.736 L303.931,10.406 C302.601,14.714 300.975,18.968 299.139,22.916 L299.139,63.151 ZM260.264,29.644 L260.294,29.644 L273.586,29.644 L276.161,31.128 C272.728,39.810 267.021,46.539 260.626,51.250 C264.917,54.151 269.410,56.234 272.993,57.611 C278.152,59.596 281.556,60.488 281.556,60.488 L280.272,62.923 L280.219,62.912 C280.207,62.909 280.196,62.907 280.184,62.904 C266.990,59.766 259.942,54.146 258.400,53.171 C246.985,60.545 235.503,62.987 235.503,62.987 L233.674,59.827 C243.353,57.950 250.328,54.701 255.911,51.274 C252.906,48.817 250.554,46.315 248.572,43.924 C243.631,37.967 241.187,32.470 241.187,32.470 L241.185,29.644 L256.589,29.644 L257.095,29.644 L257.095,19.353 L232.560,19.353 L232.560,16.265 L257.095,16.265 L257.095,8.428 L260.264,8.428 L260.264,16.265 L285.020,16.265 L285.020,19.353 L260.264,19.353 L260.264,29.644 ZM244.325,32.356 C247.766,39.485 253.136,45.291 258.343,49.247 C269.277,41.469 272.466,32.356 272.466,32.356 L244.325,32.356 ZM187.157,16.241 L206.201,16.241 C206.178,16.111 206.108,15.928 205.994,15.694 C205.199,13.976 204.311,12.199 203.278,10.259 L203.236,10.182 L206.123,8.520 L206.163,8.613 C206.458,9.275 207.076,10.568 207.674,11.819 C208.316,13.161 208.922,14.429 209.155,14.968 L209.187,15.043 L209.115,15.083 L207.097,16.241 L226.129,16.241 L226.129,19.366 L187.157,19.366 L187.157,16.241 ZM181.441,63.151 L178.309,63.151 L178.309,29.362 C176.498,32.677 174.574,35.838 172.751,38.527 L171.023,35.565 C176.283,27.920 180.475,18.785 183.334,8.736 L186.232,10.406 C184.902,14.714 183.277,18.968 181.441,22.916 L181.441,63.151 ZM154.560,48.576 C156.343,51.986 159.550,55.983 163.592,59.835 L163.645,59.884 L163.608,59.946 L161.888,62.916 L161.804,62.831 C158.036,59.013 154.789,54.887 152.871,51.481 C151.188,54.608 148.006,58.370 143.409,62.665 L143.325,62.744 L143.267,62.645 L141.592,59.752 L141.648,59.703 C145.989,55.843 149.271,52.022 151.405,48.345 C149.182,43.750 147.596,37.463 146.688,29.653 C146.379,30.247 145.968,30.994 145.461,31.878 L144.116,34.563 L142.283,31.394 C145.989,25.356 148.869,17.705 150.753,8.888 L153.786,8.893 C153.353,12.245 152.072,16.160 150.954,19.522 L150.953,19.523 L163.848,19.523 L163.848,22.421 L160.667,22.421 C159.908,33.775 157.854,42.575 154.560,48.576 ZM149.976,22.421 C149.539,23.300 149.169,24.185 148.878,25.054 C149.769,33.334 151.189,40.026 153.101,44.947 C155.593,39.444 157.161,31.867 157.762,22.421 L149.976,22.421 ZM122.621,13.870 L125.525,13.870 L125.525,24.052 L131.240,24.052 L131.240,9.571 L134.146,9.571 L134.146,24.052 L139.634,24.052 L139.634,13.870 L142.538,13.870 L142.538,26.951 L122.621,26.951 L122.621,13.870 ZM108.270,23.263 C112.216,19.571 115.730,14.674 118.528,8.975 L121.239,10.537 C118.383,16.384 114.531,21.790 110.024,26.292 L108.270,23.263 ZM118.130,23.787 L120.941,25.400 L120.910,25.474 C119.717,28.281 118.446,30.886 117.133,33.218 L117.133,63.151 L114.228,63.151 L114.228,37.997 C112.629,40.157 110.950,42.263 109.235,44.262 L109.152,44.360 L109.087,44.248 L107.477,41.466 L107.519,41.417 C111.847,36.482 115.404,30.583 118.091,23.884 L118.130,23.787 ZM43.184,71.785 C38.257,71.785 33.499,71.082 29.088,69.817 C28.687,69.694 28.260,69.627 27.819,69.627 C26.990,69.627 26.237,69.880 25.526,70.290 L16.072,75.734 C15.808,75.885 15.553,76.001 15.241,76.001 C14.445,76.001 13.801,75.358 13.801,74.565 C13.801,74.209 13.943,73.855 14.033,73.516 C14.087,73.313 15.252,68.981 15.979,66.275 C16.062,65.971 16.131,65.678 16.131,65.360 C16.131,64.395 15.652,63.542 14.922,63.021 C5.818,56.442 0.001,46.706 0.001,35.890 C0.001,16.066 19.334,-0.003 43.184,-0.003 C57.759,-0.003 70.638,6.005 78.458,15.197 L34.830,34.565 C34.368,34.733 33.873,34.829 33.353,34.829 C32.482,34.829 31.673,34.570 30.995,34.128 L21.718,27.540 C21.478,27.361 21.180,27.255 20.857,27.255 C20.062,27.255 19.417,27.898 19.417,28.690 C19.417,28.897 19.470,29.108 19.555,29.296 L27.417,46.501 L27.605,46.914 C28.098,47.790 29.037,48.383 30.116,48.383 C30.583,48.383 31.022,48.270 31.412,48.073 L31.727,47.892 L81.449,19.258 C84.584,24.231 86.367,29.886 86.367,35.890 C86.367,55.714 67.033,71.785 43.184,71.785 ZM123.528,32.649 L141.177,32.649 L141.177,35.548 L123.528,35.548 L123.528,32.649 ZM124.209,45.645 L124.209,41.248 L139.137,41.248 L139.137,52.165 L143.593,48.353 L143.649,48.448 L145.050,50.869 L144.994,50.918 C141.296,54.165 138.628,56.445 137.064,57.697 L136.981,57.763 L135.198,54.680 L135.232,54.632 C136.008,53.555 136.121,52.866 136.231,50.611 L136.231,44.145 L127.340,44.145 L127.340,46.769 C127.642,52.943 125.649,57.838 121.418,61.312 L121.335,61.381 L121.281,61.287 L119.664,58.491 L119.731,58.443 C123.125,55.973 124.632,51.667 124.209,45.645 ZM222.726,28.417 L190.332,28.417 L190.332,25.519 L222.726,25.519 L222.726,28.417 ZM222.726,37.693 L190.332,37.693 L190.332,34.570 L222.726,34.570 L222.726,37.693 ZM221.906,61.333 L191.153,61.333 L191.153,43.846 L221.906,43.846 L221.906,61.333 ZM218.774,46.743 L194.286,46.743 L194.286,58.435 L218.774,58.435 L218.774,46.743 ZM320.889,46.999 L317.780,48.808 C315.446,43.525 313.310,38.993 311.402,35.273 L314.238,33.620 C316.998,39.130 319.228,43.617 320.889,46.999 Z"/>
</svg>